<?xml version="1.0" standalone="no"?><svg xmlns:xlink="http://www.w3.org/1999/xlink" xmlns="http://www.w3.org/2000/svg" viewBox="0 0 2000 3143.057683054416" preserveAspectRatio="xMaxYMax slice"><g transform="scale(8.828813716444989)"><rect x="0" y="0" width="226.54545454545456" height="356.00000000000006" fill="#ffffff"/><rect x="0" y="0" width="32.36" height="32.36" fill="#a2c6c7"/><rect x="0" y="0" width="32.36" height="32.36" fill="#b7d3d4"/><rect x="32.36" y="0" width="32.36" height="32.36" fill="#d6e6e6"/><rect x="32.36" y="0" width="32.36" height="32.36" fill="#a287a2"/><rect x="64.73" y="0" width="32.36" height="32.36" fill="#af98af"/><polygon points="64.73,0 97.09,0 97.09,32.36" fill="#f0ecf0"/><rect x="97.09" y="0" width="32.36" height="32.36" fill="#09696b"/><polygon points="97.09,0 129.45,32.36 97.09,32.36" fill="#b4d1d2"/><rect x="129.45" y="0" width="32.36" height="32.36" fill="#8b698b"/><path d="M 129.45 0 A 32.36 32.36 0 0 1 161.81 32.36 L 129.45 32.36" fill="#89b7b8"/><rect x="161.82" y="0" width="32.36" height="32.36" fill="#9bc2c3"/><polygon points="161.82,0 194.18,0 194.18,32.36" fill="#277c7d"/><rect x="194.18" y="0" width="32.36" height="32.36" fill="#89b7b8"/><polygon points="194.18,0 226.54000000000002,32.36 194.18,32.36" fill="#937493"/><rect x="0" y="32.36" width="32.36" height="32.36" fill="#519597"/><path d="M 0 64.72 A 32.36 32.36 0 0 1  32.36 32.36 L 32.36 64.72" fill="#fdfdfd"/><rect x="32.36" y="32.36" width="32.36" height="32.36" fill="#f6f3f6"/><path d="M 32.36 64.72 A 32.36 32.36 0 0 0 64.72 32.36 L 32.36 32.36" fill="#b19bb1"/><rect x="64.73" y="32.36" width="32.36" height="32.36" fill="#693e69"/><rect x="64.73" y="32.36" width="32.36" height="32.36" fill="#d9ced9"/><rect x="97.09" y="32.36" width="32.36" height="32.36" fill="#c7b7c7"/><polygon points="97.09,32.36 129.45,64.72 97.09,64.72" fill="#eae4ea"/><rect x="129.45" y="32.36" width="32.36" height="32.36" fill="#91bcbd"/><rect x="129.45" y="32.36" width="32.36" height="32.36" fill="#937393"/><rect x="161.82" y="32.36" width="32.36" height="32.36" fill="#ebe5eb"/><path d="M 161.82 64.72 A 32.36 32.36 0 0 1  194.18 32.36 L 161.82 64.72 A 32.36 32.36 0 0 0 194.18 32.36" fill="#613361"/><rect x="194.18" y="32.36" width="32.36" height="32.36" fill="#0a6a6c"/><path d="M 194.18 32.36 A 32.36 32.36 0 0 1  226.54000000000002 64.72 L 194.18 32.36 A 32.36 32.36 0 0 0 226.54000000000002 64.72" fill="#1f7778"/><rect x="0" y="64.73" width="32.36" height="32.36" fill="#bcd6d7"/><path d="M 0 64.73 A 32.36 32.36 0 0 1  32.36 97.09 L 0 64.73 A 32.36 32.36 0 0 0 32.36 97.09" fill="#dfd6df"/><rect x="32.36" y="64.73" width="32.36" height="32.36" fill="#f5f9f9"/><rect x="32.36" y="64.73" width="32.36" height="32.36" fill="#f4f8f8"/><rect x="64.73" y="64.73" width="32.36" height="32.36" fill="#b9d5d5"/><polygon points="64.73,64.73 97.09,97.09 64.73,97.09" fill="#3f8b8c"/><rect x="97.09" y="64.73" width="32.36" height="32.36" fill="#0f6d6f"/><rect x="97.09" y="64.73" width="32.36" height="32.36" fill="#fefefe"/><rect x="129.45" y="64.73" width="32.36" height="32.36" fill="#ccbdcc"/><polygon points="129.45,64.73 161.81,64.73 129.45,97.09" fill="#825d82"/><rect x="161.82" y="64.73" width="32.36" height="32.36" fill="#68a3a4"/><polygon points="161.82,64.73 194.18,97.09 161.82,97.09" fill="#f5f2f5"/><rect x="194.18" y="64.73" width="32.36" height="32.36" fill="#815c81"/><polygon points="194.18,64.73 226.54000000000002,64.73 226.54000000000002,97.09" fill="#478f91"/><rect x="0" y="97.09" width="32.36" height="32.36" fill="#5d9c9e"/><path d="M 0 97.09 A 32.36 32.36 0 0 0 32.36 129.45 L 32.36 97.09" fill="#2b7e80"/><rect x="32.36" y="97.09" width="32.36" height="32.36" fill="#358486"/><path d="M 32.36 129.45 A 32.36 32.36 0 0 1  64.72 97.09 L 32.36 129.45 A 32.36 32.36 0 0 0 64.72 97.09" fill="#8d6c8d"/><rect x="64.73" y="97.09" width="32.36" height="32.36" fill="#7a537a"/><polygon points="97.09,97.09 97.09,129.45 64.73,129.45" fill="#b6a0b6"/><rect x="97.09" y="97.09" width="32.36" height="32.36" fill="#653865"/><rect x="97.09" y="97.09" width="32.36" height="32.36" fill="#3b888a"/><rect x="129.45" y="97.09" width="32.36" height="32.36" fill="#b8a3b8"/><path d="M 129.45 129.45 A 32.36 32.36 0 0 1  161.81 97.09 L 161.81 129.45" fill="#8a678a"/><rect x="161.82" y="97.09" width="32.36" height="32.36" fill="#6ba5a6"/><path d="M 161.82 97.09 A 32.36 32.36 0 0 1 194.18 129.45 L 161.82 129.45" fill="#e9e3e9"/><rect x="194.18" y="97.09" width="32.36" height="32.36" fill="#2c7f80"/><polygon points="226.54000000000002,97.09 226.54000000000002,129.45 194.18,129.45" fill="#f6f4f6"/><rect x="0" y="129.45" width="32.36" height="32.36" fill="#308183"/><rect x="0" y="129.45" width="32.36" height="32.36" fill="#2a7d7f"/><rect x="32.36" y="129.45" width="32.36" height="32.36" fill="#b6a1b6"/><polygon points="32.36,129.45 64.72,129.45 64.72,161.81" fill="#f5f9f9"/><rect x="64.73" y="129.45" width="32.36" height="32.36" fill="#f0f6f6"/><polygon points="64.73,129.45 97.09,129.45 97.09,161.81" fill="#9ac1c2"/><rect x="97.09" y="129.45" width="32.36" height="32.36" fill="#7fb1b2"/><path d="M 97.09 129.45 A 32.36 32.36 0 0 1  129.45 161.81 L 97.09 129.45 A 32.36 32.36 0 0 0 129.45 161.81" fill="#532153"/><rect x="129.45" y="129.45" width="32.36" height="32.36" fill="#e5efef"/><path d="M 129.45 129.45 A 32.36 32.36 0 0 1 161.81 161.81 L 129.45 161.81" fill="#ad95ad"/><rect x="161.82" y="129.45" width="32.36" height="32.36" fill="#126f71"/><path d="M 161.82 161.81 A 32.36 32.36 0 0 1  194.18 129.45 L 161.82 161.81 A 32.36 32.36 0 0 0 194.18 129.45" fill="#8d6c8d"/><rect x="194.18" y="129.45" width="32.36" height="32.36" fill="#805b80"/><path d="M 194.18 129.45 A 32.36 32.36 0 0 0 226.54000000000002 161.81 L 226.54000000000002 129.45" fill="#126f71"/><rect x="0" y="161.82" width="32.36" height="32.36" fill="#cee1e2"/><polygon points="0,161.82 32.36,194.18 0,194.18" fill="#f0f6f6"/><rect x="32.36" y="161.82" width="32.36" height="32.36" fill="#93bdbe"/><rect x="32.36" y="161.82" width="32.36" height="32.36" fill="#0e6d6f"/><rect x="64.73" y="161.82" width="32.36" height="32.36" fill="#5e2f5e"/><rect x="64.73" y="161.82" width="32.36" height="32.36" fill="#e4efef"/><rect x="97.09" y="161.82" width="32.36" height="32.36" fill="#6f446f"/><path d="M 97.09 161.82 A 32.36 32.36 0 0 0 129.45 194.18 L 129.45 161.82" fill="#1f7779"/><rect x="129.45" y="161.82" width="32.36" height="32.36" fill="#c5dbdc"/><path d="M 129.45 194.18 A 32.36 32.36 0 0 1  161.81 161.82 L 129.45 194.18 A 32.36 32.36 0 0 0 161.81 161.82" fill="#e2eeee"/><rect x="161.82" y="161.82" width="32.36" height="32.36" fill="#fdfefe"/><polygon points="161.82,161.82 194.18,161.82 161.82,194.18" fill="#69a4a5"/><rect x="194.18" y="161.82" width="32.36" height="32.36" fill="#277c7e"/><polygon points="194.18,161.82 226.54000000000002,161.82 226.54000000000002,194.18" fill="#81b2b3"/><rect x="0" y="194.18" width="32.36" height="32.36" fill="#c4b3c4"/><polygon points="0,194.18 32.36,194.18 32.36,226.54000000000002" fill="#6f446f"/><rect x="32.36" y="194.18" width="32.36" height="32.36" fill="#b7d3d4"/><path d="M 32.36 226.54000000000002 A 32.36 32.36 0 0 0 64.72 194.18 L 32.36 194.18" fill="#b19bb1"/><rect x="64.73" y="194.18" width="32.36" height="32.36" fill="#a68ca6"/><rect x="64.73" y="194.18" width="32.36" height="32.36" fill="#b6d3d3"/><rect x="97.09" y="194.18" width="32.36" height="32.36" fill="#f7f4f7"/><rect x="97.09" y="194.18" width="32.36" height="32.36" fill="#8f6e8f"/><rect x="129.45" y="194.18" width="32.36" height="32.36" fill="#bcd6d7"/><polygon points="129.45,194.18 161.81,194.18 161.81,226.54000000000002" fill="#f8f6f8"/><rect x="161.82" y="194.18" width="32.36" height="32.36" fill="#baa6ba"/><path d="M 161.82 226.54000000000002 A 32.36 32.36 0 0 1  194.18 194.18 L 194.18 226.54000000000002" fill="#edf4f4"/><rect x="194.18" y="194.18" width="32.36" height="32.36" fill="#88b7b8"/><polygon points="194.18,194.18 226.54000000000002,226.54000000000002 194.18,226.54000000000002" fill="#167273"/><rect x="0" y="226.55" width="32.36" height="32.36" fill="#92bdbe"/><path d="M 0 226.55 A 32.36 32.36 0 0 0 32.36 258.91 L 32.36 226.55" fill="#c3dbdb"/><rect x="32.36" y="226.55" width="32.36" height="32.36" fill="#71a9aa"/><path d="M 32.36 226.55 A 32.36 32.36 0 0 0 64.72 258.91 L 64.72 226.55" fill="#157172"/><rect x="64.73" y="226.55" width="32.36" height="32.36" fill="#c5dcdc"/><rect x="64.73" y="226.55" width="32.36" height="32.36" fill="#b8a3b8"/><rect x="97.09" y="226.55" width="32.36" height="32.36" fill="#c1b0c1"/><polygon points="97.09,226.55 129.45,226.55 97.09,258.91" fill="#f2eef2"/><rect x="129.45" y="226.55" width="32.36" height="32.36" fill="#ece7ec"/><path d="M 129.45 258.91 A 32.36 32.36 0 0 0 161.81 226.55 L 129.45 226.55" fill="#d1e3e3"/><rect x="161.82" y="226.55" width="32.36" height="32.36" fill="#f7f5f7"/><polygon points="161.82,226.55 194.18,258.91 161.82,258.91" fill="#adcdce"/><rect x="194.18" y="226.55" width="32.36" height="32.36" fill="#fefefe"/><path d="M 194.18 226.55 A 32.36 32.36 0 0 1  226.54000000000002 258.91 L 194.18 226.55 A 32.36 32.36 0 0 0 226.54000000000002 258.91" fill="#beabbe"/><rect x="0" y="258.91" width="32.36" height="32.36" fill="#521f52"/><path d="M 0 258.91 A 32.36 32.36 0 0 0 32.36 291.27000000000004 L 32.36 258.91" fill="#4c9293"/><rect x="32.36" y="258.91" width="32.36" height="32.36" fill="#673a67"/><polygon points="32.36,258.91 64.72,258.91 32.36,291.27000000000004" fill="#3f8a8c"/><rect x="64.73" y="258.91" width="32.36" height="32.36" fill="#b6d3d3"/><path d="M 64.73 258.91 A 32.36 32.36 0 0 1 97.09 291.27000000000004 L 64.73 291.27000000000004" fill="#8fbbbc"/><rect x="97.09" y="258.91" width="32.36" height="32.36" fill="#e7e0e7"/><path d="M 97.09 291.27000000000004 A 32.36 32.36 0 0 1  129.45 258.91 L 97.09 291.27000000000004 A 32.36 32.36 0 0 0 129.45 258.91" fill="#673b67"/><rect x="129.45" y="258.91" width="32.36" height="32.36" fill="#f4f1f4"/><path d="M 129.45 291.27000000000004 A 32.36 32.36 0 0 1  161.81 258.91 L 161.81 291.27000000000004" fill="#82b3b4"/><rect x="161.82" y="258.91" width="32.36" height="32.36" fill="#bdaabd"/><rect x="161.82" y="258.91" width="32.36" height="32.36" fill="#9d819d"/><rect x="194.18" y="258.91" width="32.36" height="32.36" fill="#fefdfe"/><polygon points="194.18,258.91 226.54000000000002,258.91 226.54000000000002,291.27000000000004" fill="#a4c8c8"/><rect x="0" y="291.27" width="32.36" height="32.36" fill="#aacbcc"/><polygon points="0,291.27 32.36,291.27 32.36,323.63" fill="#dacfda"/><rect x="32.36" y="291.27" width="32.36" height="32.36" fill="#fbfcfc"/><polygon points="32.36,291.27 64.72,291.27 32.36,323.63" fill="#7a547a"/><rect x="64.73" y="291.27" width="32.36" height="32.36" fill="#3a8789"/><rect x="64.73" y="291.27" width="32.36" height="32.36" fill="#5f305f"/><rect x="97.09" y="291.27" width="32.36" height="32.36" fill="#522052"/><path d="M 97.09 323.63 A 32.36 32.36 0 0 1  129.45 291.27 L 129.45 323.63" fill="#997b99"/><rect x="129.45" y="291.27" width="32.36" height="32.36" fill="#6a3e6a"/><rect x="129.45" y="291.27" width="32.36" height="32.36" fill="#09696b"/><rect x="161.82" y="291.27" width="32.36" height="32.36" fill="#f3eff3"/><path d="M 161.82 291.27 A 32.36 32.36 0 0 0 194.18 323.63 L 194.18 291.27" fill="#b098b0"/><rect x="194.18" y="291.27" width="32.36" height="32.36" fill="#73aaab"/><path d="M 194.18 291.27 A 32.36 32.36 0 0 1  226.54000000000002 323.63 L 194.18 291.27 A 32.36 32.36 0 0 0 226.54000000000002 323.63" fill="#683c68"/><rect x="0" y="323.64" width="32.36" height="32.36" fill="#754d75"/><rect x="0" y="323.64" width="32.36" height="32.36" fill="#1c7577"/><rect x="32.36" y="323.64" width="32.36" height="32.36" fill="#734b73"/><rect x="32.36" y="323.64" width="32.36" height="32.36" fill="#cce0e1"/><rect x="64.73" y="323.64" width="32.36" height="32.36" fill="#8ebabb"/><polygon points="64.73,323.64 97.09,323.64 97.09,356" fill="#e2dae2"/><rect x="97.09" y="323.64" width="32.36" height="32.36" fill="#e0d7e0"/><path d="M 97.09 323.64 A 32.36 32.36 0 0 1  129.45 356 L 97.09 323.64 A 32.36 32.36 0 0 0 129.45 356" fill="#6da6a7"/><rect x="129.45" y="323.64" width="32.36" height="32.36" fill="#4d194d"/><polygon points="129.45,323.64 161.81,323.64 129.45,356" fill="#785178"/><rect x="161.82" y="323.64" width="32.36" height="32.36" fill="#b19ab1"/><path d="M 161.82 356 A 32.36 32.36 0 0 0 194.18 323.64 L 161.82 323.64" fill="#a88fa8"/><rect x="194.18" y="323.64" width="32.36" height="32.36" fill="#592959"/><rect x="194.18" y="323.64" width="32.36" height="32.36" fill="#bca8bc"/></g></svg>